<svg width="346" height="452" viewBox="0 0 346 452" fill="none" xmlns="http://www.w3.org/2000/svg">
<path d="M162.957 128.205C162.957 128.375 163.127 128.545 163.127 129.054V264.867C163.127 266.904 162.278 268.602 161.09 270.13C159.562 271.658 157.695 272.506 155.827 272.506C153.79 272.506 151.922 271.658 150.564 270.13C149.206 268.772 148.357 267.074 148.357 264.867V127.696C148.357 123.452 146.83 119.717 143.774 116.831C140.548 113.945 136.813 112.587 132.909 112.587C128.834 112.587 125.269 113.945 122.044 116.831C118.988 119.887 117.46 123.452 117.46 127.696V165.723C117.46 167.761 116.781 169.628 115.423 170.986C113.895 172.514 112.197 173.363 110.16 173.363C108.123 173.363 106.425 172.514 104.897 170.986C103.369 169.628 102.69 167.93 102.69 165.723V127.696C102.69 123.621 101.162 120.056 98.2764 116.831C95.0509 113.945 91.316 112.587 87.4114 112.587C83.5068 112.587 79.9417 113.945 76.5464 116.831C73.3208 119.717 71.7929 123.282 71.7929 127.696V165.723C71.7929 167.761 71.1139 169.628 69.7557 170.986C68.2278 172.514 66.5302 173.363 64.493 173.363C62.4558 173.363 60.7581 172.514 59.2302 170.986C57.7023 169.628 56.8535 167.93 56.8535 165.723V127.696C56.8535 119.377 59.9093 112.417 65.8511 106.305C71.7929 100.533 78.9231 97.4774 87.2416 97.4774C96.5788 97.4774 104.218 101.043 110.16 107.833C115.932 100.873 123.572 97.4774 132.909 97.4774C141.227 97.4774 148.357 100.533 154.299 106.305C160.241 112.247 163.297 119.377 163.297 127.696C163.127 127.866 162.957 128.205 162.957 128.205Z" fill="#0D0711"/>
<path d="M254.12 165.214C254.12 167.421 253.441 169.289 252.083 170.647C250.725 172.005 248.858 172.684 246.651 172.684C245.293 172.684 243.765 172.005 241.897 170.647C240.2 168.949 239.351 167.082 239.351 165.214C233.069 170.307 225.6 172.684 217.111 172.684C206.416 172.684 197.419 169.119 190.119 162.158C182.649 155.028 178.914 146.2 178.914 135.675C178.914 125.149 182.649 116.152 190.119 108.682C197.588 101.212 206.586 97.4774 217.111 97.4774C227.637 97.4774 236.465 101.212 243.595 108.682C250.555 115.982 254.12 124.98 254.12 135.675V165.214ZM216.942 157.914C223.223 157.914 228.656 155.707 232.9 151.463C237.144 147.219 239.181 141.956 239.181 135.675C239.181 129.224 237.144 123.791 232.9 119.207C228.656 114.624 223.223 112.247 216.942 112.247C210.66 112.247 205.058 114.624 200.474 119.207C195.891 123.791 193.514 129.224 193.514 135.675C193.514 141.956 195.891 147.219 200.474 151.463C204.888 155.707 210.321 157.914 216.942 157.914Z" fill="#0D0711"/>
<path d="M284.508 165.384C284.508 167.251 283.829 168.949 282.471 170.647C280.943 172.175 279.245 172.854 277.208 172.854C275.171 172.854 273.303 172.175 271.945 170.647C270.417 169.119 269.738 167.421 269.738 165.384V135.165C269.738 124.64 273.473 115.812 280.943 108.342C288.243 101.042 297.24 97.3076 307.596 97.3076C309.464 97.3076 311.331 97.9867 313.029 99.3448C314.387 101.042 315.066 102.74 315.066 104.608C315.066 106.475 314.387 108.173 313.029 109.87C311.501 111.398 309.633 112.077 307.596 112.077C301.315 112.077 295.882 114.284 291.468 118.698C286.885 123.282 284.678 128.714 284.678 134.996V165.384H284.508Z" fill="#0D0711"/>
<path d="M132.231 302.555C132.231 304.423 131.552 306.12 130.194 307.818C128.496 309.176 126.629 309.855 124.762 309.855C122.894 309.855 121.196 309.176 119.499 307.818C118.141 306.12 117.462 304.423 117.462 302.555V265.037C110.671 270.13 103.032 272.676 94.5432 272.676C84.0177 272.676 75.0201 268.941 67.7202 261.641C60.2505 254.341 56.5156 245.514 56.5156 234.988C56.5156 224.463 60.2505 215.635 67.5504 208.335C75.0201 200.865 83.848 197.13 94.3734 197.13C104.729 197.13 113.557 200.865 121.027 208.335C128.496 215.805 132.231 224.632 132.231 234.988V302.555ZM117.292 234.988C117.292 228.877 115.085 223.444 110.671 218.691C105.918 214.277 100.485 212.07 94.3734 212.07C88.0921 212.07 82.6596 214.277 78.2457 218.86C73.662 223.444 71.455 228.707 71.455 234.988C71.455 241.269 73.662 246.702 78.2457 251.116C82.6596 255.7 88.0921 257.907 94.3734 257.907C100.485 257.907 105.918 255.7 110.671 251.286C115.085 246.532 117.292 241.1 117.292 234.988Z" fill="#0D0711"/>
<path d="M192.329 241.609C193.857 246.193 196.743 249.928 200.648 252.814C204.722 255.7 209.306 257.227 214.059 257.227C215.927 257.227 216.945 257.227 217.115 257.058L218.303 256.888L219.492 256.718L220.34 256.548L221.02 256.379C224.075 255.7 227.471 254.341 230.866 252.134C232.564 250.946 234.431 250.946 236.468 251.625C238.505 252.474 240.033 253.662 240.882 255.53C242.75 259.265 241.561 262.49 237.317 265.546C232.224 268.432 227.81 270.299 224.075 271.318L223.057 271.488L221.868 271.658L220.34 271.827L218.643 271.997L216.436 272.167H214.229C203.703 272.167 194.876 268.432 187.406 260.962C180.106 253.662 176.371 244.665 176.371 234.309C176.371 223.784 180.106 214.786 187.406 207.486C194.706 200.186 203.703 196.451 214.229 196.451C224.415 196.451 232.903 199.677 240.033 206.128C248.012 213.428 252.087 222.765 252.087 234.309C252.087 236.176 251.408 237.874 250.05 239.572C248.352 240.93 246.484 241.609 244.617 241.609H192.329ZM235.959 226.839C234.431 221.746 231.545 218.011 227.301 215.295C223.566 212.749 219.152 211.56 214.229 211.56C209.475 211.56 204.892 213.088 200.817 215.974C196.913 218.86 194.197 222.425 192.499 227.009H235.959V226.839Z" fill="#0D0711"/>
<path d="M277.551 252.813C279.249 255.869 281.795 257.397 285.021 257.397C287.058 257.397 288.926 256.718 290.454 255.19C291.981 253.662 292.66 251.795 292.66 249.588C292.66 247.551 291.981 245.683 290.454 244.155C288.926 242.627 287.058 241.948 285.021 241.948C278.74 241.948 273.477 239.741 269.063 235.327C264.649 231.083 262.442 225.821 262.442 219.369C262.442 213.088 264.649 207.825 269.063 203.411C273.477 198.997 278.74 196.791 285.021 196.791C290.284 196.791 295.037 198.318 299.281 201.544C303.525 204.77 305.902 208.504 306.751 212.579C307.091 213.767 306.751 215.635 305.732 218.351C304.714 219.879 303.186 221.067 300.979 221.576C296.735 222.425 293.679 220.558 292.151 215.974C291.133 213.258 288.756 211.9 285.021 211.9C282.984 211.9 281.116 212.579 279.588 214.107C278.061 215.635 277.382 217.502 277.382 219.539C277.382 221.576 278.061 223.444 279.588 224.972C281.116 226.5 282.984 227.179 285.021 227.179C291.302 227.179 296.565 229.386 300.979 233.8C305.393 238.214 307.6 243.476 307.6 249.758C307.6 255.869 305.393 261.132 300.979 265.885C296.565 270.299 291.302 272.506 285.021 272.506C279.928 272.506 275.175 270.809 270.93 267.583C267.026 264.527 264.31 260.792 262.782 256.209C262.103 254.341 262.442 252.474 263.63 250.606C264.989 248.739 266.517 247.72 268.384 247.211C272.119 246.193 275.005 248.06 277.551 252.813Z" fill="#0D0711"/>
<rect x="196.564" y="316.624" width="118.246" height="114.717" rx="13.2365" transform="rotate(-19.2325 196.564 316.624)" fill="#BEF318"/>
<g clip-path="url(#clip0_52_1860)">
<path d="M226.723 323.257L226.353 322.198C225.947 321.033 224.661 320.413 223.497 320.819L219.261 322.297C218.097 322.703 217.476 323.989 217.882 325.153L218.252 326.212C215.922 327.025 214.681 329.596 215.494 331.925L219.557 343.572C219.964 344.737 221.249 345.358 222.414 344.951L234.273 340.814L231.416 339.435L221.675 342.834L220.198 338.598L222.315 337.859L223.054 339.977L224.113 339.608L223.374 337.49L228.668 335.643L228.299 334.584L219.828 337.539L217.612 331.186C217.205 330.022 217.826 328.736 218.991 328.33L227.461 325.375C228.626 324.968 229.911 325.589 230.318 326.753L231.426 329.93L233.544 329.191L232.435 326.015C231.623 323.685 229.052 322.444 226.723 323.257ZM224.605 323.996L220.369 325.473L220 324.414L224.235 322.937L224.605 323.996ZM223.965 328.97L222.586 331.826L225.442 333.205L226.821 330.349L223.965 328.97ZM239.71 333.929L234.568 331.447C234.319 331.415 234.071 331.383 233.859 331.457L230.894 332.491C230.471 332.639 230.195 333.21 230.343 333.634L231.377 336.598C231.451 336.81 231.631 336.985 231.81 337.16L236.952 339.642C237.095 339.711 237.344 339.743 237.661 339.632C237.873 339.558 238.048 339.378 238.223 339.198L240.153 335.199C240.222 335.057 240.254 334.808 240.143 334.49C240.069 334.278 239.89 334.104 239.71 333.929ZM232.268 334.387C231.951 334.498 231.522 334.291 231.411 333.973C231.301 333.656 231.507 333.227 231.825 333.116C232.143 333.006 232.571 333.212 232.682 333.53C232.793 333.848 232.586 334.276 232.268 334.387Z" fill="#0D0711"/>
</g>
<path d="M222.726 359.064L222.23 357.643L228.864 355.328L229.36 356.749L227.033 357.561L229.292 364.038L227.318 364.727L225.058 358.25L222.726 359.064ZM230.976 359.289L230.809 358.811C230.369 357.549 230.379 356.469 230.84 355.57C231.305 354.669 232.089 354.027 233.192 353.642C234.291 353.258 235.306 353.273 236.238 353.687C237.169 354.1 237.854 354.938 238.295 356.2L238.461 356.677C238.902 357.939 238.886 359.022 238.414 359.925C237.942 360.828 237.156 361.471 236.057 361.854C234.954 362.239 233.941 362.224 233.017 361.808C232.096 361.39 231.416 360.551 230.976 359.289ZM233.059 358.738C233.329 359.512 233.681 360.032 234.115 360.299C234.551 360.56 235.031 360.6 235.555 360.417C236.087 360.231 236.444 359.9 236.626 359.423C236.807 358.942 236.763 358.314 236.493 357.54L236.219 356.754C235.947 355.976 235.592 355.457 235.152 355.197C234.711 354.933 234.225 354.894 233.693 355.079C233.169 355.262 232.818 355.593 232.641 356.073C232.466 356.548 232.514 357.174 232.785 357.952L233.059 358.738ZM239.262 351.7L245.175 349.638L247.93 357.536L245.961 358.222L243.702 351.746L241.304 352.582L242.352 356.214C242.651 357.246 242.725 358.078 242.572 358.711C242.424 359.343 241.942 359.801 241.129 360.085C241.013 360.125 240.888 360.161 240.752 360.192C240.621 360.222 240.489 360.235 240.359 360.232L239.791 358.605C239.889 358.607 239.976 358.601 240.052 358.586C240.127 358.568 240.203 358.546 240.278 358.52C240.618 358.401 240.809 358.192 240.851 357.894C240.895 357.59 240.828 357.129 240.648 356.51L239.262 351.7ZM246.851 349.053L248.82 348.366L249.772 351.094L251.02 350.659C252.09 350.286 252.954 350.252 253.613 350.558C254.275 350.862 254.741 351.401 255.011 352.175C255.284 352.96 255.255 353.672 254.922 354.311C254.593 354.949 253.892 355.456 252.818 355.83L249.606 356.951L246.851 349.053ZM250.262 352.499L251.085 354.859L252.197 354.471C252.642 354.316 252.928 354.105 253.053 353.838C253.178 353.567 253.174 353.242 253.042 352.862C252.914 352.497 252.716 352.242 252.446 352.096C252.176 351.951 251.819 351.956 251.374 352.111L250.262 352.499ZM261.914 352.657L258.08 350.003L258.979 348.254L264.383 351.796L261.914 352.657ZM256.437 349.201L257.788 348.73L259.262 344.723L261.318 344.006L259.025 349.904L256.937 350.633L256.437 349.201ZM257.038 354.358L254.283 346.46L256.257 345.771L259.012 353.669L257.038 354.358ZM263.37 347.987L263.204 347.51C262.763 346.248 262.774 345.167 263.235 344.268C263.7 343.368 264.483 342.725 265.586 342.34C266.686 341.957 267.701 341.972 268.632 342.385C269.563 342.798 270.249 343.636 270.689 344.898L270.856 345.376C271.296 346.638 271.28 347.72 270.808 348.623C270.336 349.526 269.551 350.169 268.451 350.553C267.348 350.937 266.335 350.922 265.411 350.506C264.491 350.089 263.81 349.249 263.37 347.987ZM265.454 347.437C265.724 348.211 266.076 348.731 266.509 348.997C266.945 349.259 267.426 349.298 267.95 349.115C268.482 348.93 268.839 348.598 269.021 348.121C269.202 347.64 269.157 347.013 268.887 346.239L268.613 345.452C268.342 344.675 267.986 344.156 267.547 343.895C267.106 343.631 266.619 343.592 266.088 343.778C265.563 343.961 265.213 344.292 265.035 344.772C264.86 345.246 264.908 345.873 265.179 346.65L265.454 347.437ZM236.831 381.531L232.997 378.877L233.895 377.128L239.299 380.67L236.831 381.531ZM231.354 378.075L232.705 377.604L234.179 373.597L236.234 372.88L233.942 378.779L231.853 379.507L231.354 378.075ZM231.954 383.232L229.199 375.334L231.173 374.645L233.929 382.543L231.954 383.232ZM238.881 380.816L238.986 371.889L241.188 371.121L246.888 378.022L244.751 378.768L241.007 374.002C240.919 373.89 240.841 373.782 240.771 373.676C240.706 373.569 240.641 373.46 240.578 373.348L240.535 373.363C240.554 373.49 240.57 373.616 240.582 373.742C240.597 373.867 240.603 374.001 240.6 374.144L240.65 380.199L238.881 380.816ZM240.059 378.592L240.008 377.052L243.458 375.848L244.382 377.083L240.059 378.592ZM247.428 371.445C247.621 371.998 247.877 372.329 248.194 372.437C248.511 372.542 248.937 372.501 249.472 372.314C249.917 372.159 250.298 372.001 250.615 371.842C250.932 371.679 251.257 371.49 251.592 371.276L252.081 372.676C251.657 372.949 251.252 373.179 250.867 373.367C250.485 373.549 250.046 373.726 249.55 373.899C248.458 374.28 247.592 374.339 246.953 374.075C246.317 373.81 245.84 373.222 245.522 372.311L244.691 369.929L246.66 369.243L247.428 371.445ZM251.412 367.585L254.167 375.483L252.193 376.172L249.437 368.274L251.412 367.585ZM255.833 374.902L253.077 367.004L258.724 365.034L259.22 366.455L255.531 367.742L256.129 369.456L259.319 368.343L259.807 369.743L256.617 370.855L257.297 372.803L261.045 371.495L261.539 372.911L255.833 374.902ZM261.134 368.89L260.968 368.413C260.526 367.147 260.537 366.067 260.999 365.171C261.464 364.271 262.251 363.627 263.361 363.24C264.424 362.869 265.351 362.839 266.142 363.152C266.932 363.464 267.488 364.041 267.81 364.882L267.857 365.017L265.856 365.716L265.795 365.56C265.633 365.13 265.39 364.834 265.065 364.671C264.741 364.509 264.335 364.512 263.846 364.683C263.337 364.861 262.989 365.183 262.802 365.649C262.62 366.115 262.665 366.738 262.937 367.519L263.233 368.365C263.496 369.121 263.843 369.633 264.273 369.9C264.706 370.163 265.191 370.201 265.73 370.013C266.211 369.845 266.524 369.592 266.67 369.253C266.814 368.91 266.82 368.531 266.687 368.115L266.639 367.961L268.641 367.263L268.694 367.415C268.961 368.263 268.881 369.056 268.453 369.793C268.028 370.529 267.286 371.082 266.226 371.452C265.113 371.841 264.095 371.825 263.173 371.404C262.252 370.983 261.572 370.145 261.134 368.89ZM267.79 363.465L267.295 362.044L273.929 359.729L274.424 361.15L272.097 361.962L274.357 368.439L272.382 369.128L270.123 362.651L267.79 363.465ZM277.639 367.294L274.883 359.396L278.035 358.297C278.982 357.966 279.785 357.877 280.442 358.029C281.103 358.18 281.558 358.611 281.807 359.323C281.958 359.757 281.987 360.149 281.894 360.498C281.8 360.847 281.628 361.12 281.376 361.317L281.384 361.339C281.774 361.316 282.14 361.424 282.482 361.662C282.823 361.895 283.084 362.269 283.263 362.783C283.514 363.502 283.423 364.161 282.99 364.758C282.558 365.355 281.879 365.815 280.953 366.138L277.639 367.294ZM279.141 365.304L280.459 364.844C280.86 364.704 281.121 364.503 281.241 364.242C281.364 363.98 281.368 363.681 281.25 363.345C281.134 363.012 280.946 362.782 280.686 362.653C280.43 362.523 280.101 362.529 279.7 362.669L278.382 363.129L279.141 365.304ZM277.952 361.897L279.113 361.492C279.511 361.353 279.768 361.172 279.885 360.949C280.005 360.725 280.013 360.462 279.909 360.162C279.805 359.866 279.636 359.667 279.402 359.566C279.172 359.464 278.858 359.482 278.46 359.621L277.299 360.026L277.952 361.897ZM285.363 364.599L282.608 356.701L288.254 354.731L288.75 356.153L285.062 357.439L285.66 359.154L288.849 358.041L289.337 359.44L286.148 360.553L286.827 362.5L290.576 361.193L291.069 362.608L285.363 364.599ZM292.263 362.192L289.507 354.294L291.477 353.607L292.563 356.721L295.535 355.684L294.449 352.57L296.418 351.883L299.174 359.781L297.204 360.468L296.035 357.116L293.062 358.153L294.232 361.505L292.263 362.192ZM300.844 359.198L298.089 351.3L300.058 350.613L301.144 353.727L304.117 352.69L303.03 349.576L305 348.889L307.755 356.787L305.786 357.474L304.616 354.122L301.644 355.159L302.813 358.511L300.844 359.198ZM308.422 356.555L308.527 347.628L310.729 346.86L316.429 353.761L314.291 354.507L310.548 349.741C310.46 349.629 310.382 349.521 310.312 349.415C310.247 349.308 310.182 349.199 310.119 349.087L310.075 349.102C310.095 349.229 310.111 349.355 310.122 349.481C310.137 349.606 310.144 349.74 310.141 349.883L310.19 355.938L308.422 356.555ZM309.599 354.331L309.549 352.791L312.999 351.587L313.923 352.822L309.599 354.331ZM323.117 351.428L321.148 352.115L320.203 349.408L318.43 350.027L318.009 349.955C317.256 350.112 316.62 350.038 316.1 349.732C315.582 349.422 315.21 348.942 314.982 348.291C314.705 347.495 314.757 346.773 315.139 346.125C315.522 345.476 316.212 344.978 317.21 344.63L320.361 343.53L323.117 351.428ZM319.721 348.025L318.879 345.611L317.837 345.974C317.353 346.144 317.052 346.37 316.936 346.654C316.824 346.936 316.83 347.255 316.953 347.609C317.08 347.971 317.277 348.235 317.546 348.4C317.817 348.561 318.195 348.557 318.679 348.388L319.721 348.025ZM318.75 352.951L316.64 353.688L317.336 349.368L319.386 348.653L318.75 352.951ZM238.213 401.172L235.458 393.274L242.282 390.893L245.037 398.791L243.068 399.478L240.808 393.001L237.922 394.008L240.182 400.485L238.213 401.172ZM246.708 398.208L243.952 390.31L247.174 389.186C248.162 388.842 249 388.803 249.689 389.069C250.382 389.335 250.875 389.889 251.169 390.731C251.463 391.574 251.425 392.318 251.053 392.962C250.682 393.607 250.001 394.102 249.01 394.448L247.757 394.885L248.677 397.521L246.708 398.208ZM247.271 393.491L248.366 393.109C248.844 392.942 249.137 392.718 249.245 392.437C249.354 392.156 249.34 391.818 249.202 391.424C249.066 391.033 248.869 390.765 248.611 390.62C248.353 390.471 247.985 390.48 247.507 390.646L246.411 391.028L247.271 393.491ZM252.541 392.011L252.374 391.534C251.934 390.272 251.944 389.191 252.405 388.292C252.87 387.392 253.654 386.749 254.757 386.364C255.856 385.981 256.872 385.996 257.803 386.409C258.734 386.823 259.42 387.66 259.86 388.922L260.027 389.4C260.467 390.662 260.451 391.744 259.979 392.647C259.507 393.55 258.721 394.193 257.622 394.577C256.519 394.962 255.506 394.946 254.582 394.53C253.661 394.113 252.981 393.273 252.541 392.011ZM254.624 391.461C254.894 392.235 255.246 392.755 255.68 393.021C256.116 393.283 256.596 393.322 257.121 393.139C257.652 392.954 258.009 392.623 258.191 392.145C258.373 391.664 258.328 391.037 258.058 390.263L257.784 389.476C257.512 388.699 257.157 388.18 256.717 387.92C256.276 387.656 255.79 387.616 255.258 387.802C254.734 387.985 254.383 388.316 254.206 388.796C254.031 389.271 254.079 389.897 254.35 390.674L254.624 391.461ZM269.073 392.17L268.525 390.597L263.767 392.257L264.316 393.83L262.461 394.477L261.416 391.483L269.889 388.527L270.934 391.521L269.073 392.17ZM260.643 384.487L266.632 382.398L269.387 390.296L267.413 390.985L265.153 384.508L262.679 385.371L263.518 388.157C263.754 388.939 263.892 389.568 263.933 390.045C263.972 390.518 263.934 390.967 263.819 391.393L262.072 392.002C262.209 391.488 262.268 391.001 262.25 390.541C262.234 390.076 262.102 389.43 261.854 388.604L260.643 384.487ZM270.895 387.975C270.998 387.967 271.113 387.954 271.24 387.934C271.366 387.91 271.497 387.874 271.635 387.826C271.924 387.725 272.151 387.585 272.316 387.406C272.479 387.224 272.586 386.943 272.636 386.564L272.682 386.816L267.733 382.014L269.794 381.295L272.337 383.961C272.515 384.146 272.64 384.302 272.712 384.427C272.783 384.548 272.869 384.668 272.971 384.786L273.015 384.771C273.015 384.621 273.011 384.474 273.001 384.332C272.991 384.185 272.994 383.99 273.01 383.745L273.217 380.101L274.996 379.48L274.432 386.303C274.359 387.2 274.174 387.886 273.877 388.358C273.582 388.826 273.098 389.178 272.425 389.412C272.197 389.492 272.012 389.547 271.868 389.576C271.729 389.609 271.597 389.624 271.471 389.624L270.895 387.975ZM283.48 385.379L279.645 382.726L280.544 380.976L285.948 384.518L283.48 385.379ZM278.003 381.924L279.353 381.452L280.827 377.446L282.883 376.728L280.591 382.627L278.502 383.356L278.003 381.924ZM278.603 387.081L275.848 379.183L277.822 378.494L280.578 386.392L278.603 387.081ZM293.049 383.805L292.5 382.232L286.534 384.314L283.778 376.416L285.747 375.729L288.007 382.206L290.893 381.199L288.633 374.722L290.607 374.034L292.867 380.51L293.86 380.164L294.904 383.158L293.049 383.805ZM302.237 378.835L300.263 379.524L298.694 375.027C298.651 374.905 298.604 374.765 298.554 374.608C298.502 374.448 298.455 374.303 298.415 374.176L298.366 374.193C298.355 374.334 298.339 374.476 298.319 374.617C298.302 374.753 298.283 374.901 298.262 375.063L297.404 380.522L295.278 381.263L292.522 373.366L294.491 372.679L296.045 377.132C296.088 377.255 296.139 377.407 296.199 377.59C296.257 377.768 296.306 377.919 296.345 378.044L296.394 378.027C296.405 377.909 296.419 377.768 296.435 377.604C296.454 377.439 296.474 377.28 296.494 377.128L297.35 371.681L299.482 370.938L302.237 378.835ZM309.924 376.154L307.954 376.841L307.01 374.134L305.236 374.753L304.816 374.681C304.063 374.838 303.427 374.764 302.907 374.458C302.389 374.148 302.016 373.668 301.789 373.017C301.512 372.221 301.564 371.499 301.946 370.851C302.328 370.202 303.019 369.704 304.017 369.355L307.168 368.256L309.924 376.154ZM306.528 372.751L305.685 370.337L304.644 370.7C304.159 370.869 303.859 371.096 303.743 371.38C303.631 371.662 303.636 371.981 303.76 372.335C303.886 372.697 304.084 372.96 304.353 373.126C304.624 373.287 305.002 373.283 305.486 373.114L306.528 372.751ZM305.557 377.677L303.447 378.413L304.143 374.094L306.193 373.379L305.557 377.677Z" fill="#0D0711"/>
<path d="M13.2612 4.39039C13.5031 1.96564 15.6649 0.196116 18.0896 0.438037L120.026 10.6084C122.451 10.8503 124.22 13.0121 123.978 15.4368L122.226 32.9984L11.509 21.9519L13.2612 4.39039Z" fill="#5296FF"/>
<path d="M11.5098 21.9519L202.111 40.9685C204.536 41.2105 206.305 43.3722 206.063 45.797L204.749 58.9681C204.507 61.3929 202.345 63.1624 199.921 62.9205L9.31958 43.9038L11.5098 21.9519Z" fill="#5296FF"/>
<path d="M9.31836 43.9039L141.231 57.0651L139.479 74.6267C139.237 77.0514 137.075 78.8209 134.65 78.579L11.5186 66.2939C9.09383 66.052 7.32429 63.8902 7.56621 61.4655L9.31836 43.9039Z" fill="#5296FF"/>
<path d="M19.4404 19.9272L20.4419 9.88942L28.5907 10.7024L27.5892 20.7402L25.4727 20.5291L26.314 12.0976L22.3981 11.7069L21.5569 20.1384L19.4404 19.9272ZM29.7264 20.9535L30.7279 10.9157L34.5541 11.2974C35.7215 11.4139 36.5898 11.7837 37.1589 12.4068C37.7326 13.0303 37.9674 13.8637 37.8633 14.907C37.7597 15.9457 37.3646 16.7186 36.6781 17.2257C35.9962 17.7333 35.0692 17.9286 33.8972 17.8117L32.1875 17.6411L31.836 21.164L29.7264 20.9535ZM32.345 16.0623L33.8686 16.2143C34.5166 16.279 34.9796 16.1743 35.2576 15.9003C35.5356 15.6264 35.701 15.2251 35.7537 14.6966C35.806 14.1726 35.7225 13.7535 35.5032 13.4392C35.2844 13.1202 34.8509 12.9285 34.2029 12.8638L32.6793 12.7118L32.345 16.0623ZM46.9478 22.6717L44.8314 22.4605L45.4415 16.3455C45.4575 16.1846 45.4752 16.0077 45.4944 15.8146C45.5187 15.6174 45.5412 15.4387 45.5619 15.2783L45.5136 15.2734C45.4249 15.4178 45.3365 15.5598 45.2483 15.6995C45.1601 15.8393 45.0613 15.9919 44.952 16.1574L40.881 22.0664L38.5922 21.838L39.5937 11.8002L41.7102 12.0114L41.1001 18.1265C41.084 18.2873 41.0638 18.4663 41.0395 18.6635C41.0198 18.8611 40.9998 19.0379 40.9797 19.1937L41.0348 19.1992C41.1069 19.081 41.1903 18.9431 41.285 18.7855C41.3842 18.6283 41.4857 18.4713 41.5896 18.3146L45.6605 12.4055L47.9493 12.6339L46.9478 22.6717ZM49.085 22.8849L50.0865 12.8471L52.1961 13.0576L51.7916 17.1113L55.8316 17.5144L56.236 13.4607L58.3456 13.6711L57.3441 23.7089L55.2345 23.4985L55.6699 19.1345L51.63 18.7314L51.1946 23.0954L49.085 22.8849ZM67.8369 24.7558L65.7205 24.5447L66.3306 18.4296C66.3466 18.2687 66.3643 18.0918 66.3835 17.8988C66.4078 17.7016 66.4303 17.5228 66.451 17.3624L66.4027 17.3576C66.314 17.5019 66.2256 17.644 66.1374 17.7837C66.0492 17.9234 65.9504 18.076 65.8411 18.2415L61.7701 24.1505L59.4813 23.9222L60.4828 13.8844L62.5993 14.0955L61.9892 20.2106C61.9731 20.3715 61.9529 20.5505 61.9286 20.7477C61.9089 20.9453 61.889 21.122 61.8688 21.2778L61.9239 21.2833C61.9961 21.1652 62.0794 21.0273 62.1741 20.8696C62.2733 20.7124 62.3748 20.5554 62.4787 20.3987L66.5496 14.4897L68.8384 14.718L67.8369 24.7558ZM69.9741 24.9691L70.9756 14.9313L73.6781 15.2009L75.4286 21.9414C75.4682 22.1032 75.5018 22.2551 75.5294 22.3971C75.5574 22.5345 75.5768 22.6896 75.5874 22.8624L75.6287 22.8665C75.6779 22.6997 75.73 22.5494 75.7851 22.4156C75.8403 22.2819 75.903 22.1419 75.9732 21.9957L79.0279 15.7347L81.7718 16.0084L80.7703 26.0462L78.6814 25.8378L79.3204 19.4332C79.336 19.2769 79.3552 19.1071 79.3782 18.9237C79.4061 18.7362 79.4346 18.5673 79.4635 18.417L79.4084 18.4115C79.3703 18.5609 79.3188 18.7275 79.2541 18.9113C79.1944 19.0911 79.1291 19.2563 79.0584 19.4071L76.0547 25.5757L74.3243 25.4031L72.6193 18.7646C72.5797 18.6028 72.5461 18.4277 72.5185 18.2393C72.4914 18.0463 72.4739 17.8728 72.466 17.7188L72.4109 17.7133C72.4095 17.8664 72.4017 18.0374 72.3875 18.2262C72.3784 18.411 72.366 18.5815 72.3504 18.7378L71.7114 25.1424L69.9741 24.9691ZM81.6527 26.1343L86.4646 16.4279L88.6914 16.6501L91.5595 27.1227L89.2845 26.8957L87.4139 19.5444C87.3743 19.3827 87.3433 19.2287 87.3207 19.0826C87.3027 18.9369 87.2871 18.7914 87.2737 18.6462L87.2186 18.6407C87.1768 18.7804 87.1302 18.922 87.0787 19.0654C87.0323 19.2046 86.974 19.3474 86.9037 19.4935L83.6175 26.3303L81.6527 26.1343ZM84.0314 24.1366L84.677 22.6204L89.1099 23.0627L89.4501 24.6772L84.0314 24.1366ZM92.4489 27.2114L93.4504 17.1736L100.207 17.8477L100.046 19.454L95.3859 18.989L95.139 21.464L99.172 21.8664L99.0138 23.452L94.9808 23.0497L94.7043 25.8211L99.4405 26.2936L99.2809 27.8931L92.4489 27.2114ZM100.791 28.0437L101.792 18.0059L104.495 18.2755L106.245 25.016C106.285 25.1778 106.318 25.3297 106.346 25.4717C106.374 25.6091 106.393 25.7642 106.404 25.937L106.445 25.9411C106.494 25.7743 106.547 25.624 106.602 25.4903C106.657 25.3565 106.72 25.2165 106.79 25.0704L109.845 18.8093L112.588 19.0831L111.587 29.1209L109.498 28.9124L110.137 22.5078C110.153 22.3516 110.172 22.1817 110.195 21.9983C110.223 21.8108 110.251 21.6419 110.28 21.4916L110.225 21.4861C110.187 21.6355 110.135 21.8021 110.071 21.986C110.011 22.1657 109.946 22.3309 109.875 22.4817L106.871 28.6504L105.141 28.4777L103.436 21.8392C103.396 21.6775 103.363 21.5024 103.335 21.314C103.308 21.1209 103.29 20.9474 103.283 20.7935L103.227 20.788C103.226 20.941 103.218 21.112 103.204 21.3009C103.195 21.4856 103.183 21.6562 103.167 21.8124L102.528 28.217L100.791 28.0437ZM113.79 28.3241C113.822 28.007 113.957 27.7466 114.195 27.5429C114.434 27.3347 114.756 27.2507 115.16 27.2911C115.565 27.3314 115.864 27.4773 116.057 27.7286C116.255 27.9759 116.338 28.258 116.306 28.5752C116.275 28.8923 116.139 29.155 115.9 29.3632C115.662 29.5669 115.341 29.6485 114.936 29.6082C114.527 29.5674 114.226 29.4236 114.032 29.1768C113.839 28.9255 113.758 28.6412 113.79 28.3241ZM114.322 22.995C114.353 22.6778 114.488 22.4174 114.727 22.2138C114.966 22.0055 115.29 21.9218 115.699 21.9626C116.103 22.003 116.402 22.1488 116.595 22.4002C116.789 22.647 116.87 22.9289 116.838 23.246C116.806 23.5632 116.669 23.8233 116.426 24.0265C116.187 24.2302 115.866 24.3118 115.462 24.2715C115.057 24.2311 114.758 24.0876 114.565 23.8408C114.371 23.594 114.29 23.3121 114.322 22.995ZM17.6534 37.8383L18.6549 27.8005L21.3574 28.0701L23.1079 34.8106C23.1474 34.9724 23.181 35.1243 23.2086 35.2663C23.2367 35.4037 23.256 35.5588 23.2666 35.7316L23.308 35.7357C23.3571 35.5689 23.4093 35.4186 23.4644 35.2848C23.5195 35.1511 23.5822 35.0111 23.6525 34.865L26.7072 28.6039L29.451 28.8776L28.4495 38.9154L26.3606 38.707L26.9996 32.3024C27.0152 32.1462 27.0345 31.9763 27.0574 31.7929C27.0854 31.6054 27.1139 31.4365 27.1428 31.2862L27.0876 31.2807C27.0495 31.4301 26.9981 31.5967 26.9333 31.7806C26.8736 31.9603 26.8084 32.1255 26.7376 32.2763L23.734 38.445L22.0036 38.2723L20.2986 31.6338C20.259 31.4721 20.2254 31.297 20.1978 31.1085C20.1706 30.9155 20.1531 30.742 20.1453 30.5881L20.0901 30.5826C20.0888 30.7356 20.081 30.9066 20.0668 31.0955C20.0577 31.2802 20.0453 31.4507 20.0297 31.607L19.3907 38.0116L17.6534 37.8383ZM29.3871 39.009L34.199 29.3026L36.4258 29.5248L39.2939 39.9974L37.0189 39.7704L35.1483 32.4192C35.1087 32.2574 35.0777 32.1034 35.0551 31.9573C35.0372 31.8116 35.0215 31.6661 35.0081 31.5209L34.953 31.5154C34.9112 31.6551 34.8646 31.7967 34.8131 31.9401C34.7667 32.0794 34.7084 32.2221 34.6381 32.3683L31.352 39.205L29.3871 39.009ZM31.7658 37.0113L32.4114 35.4952L36.8443 35.9374L37.1845 37.5519L31.7658 37.0113ZM39.9089 37.1832L39.9275 36.997L42.0785 37.2116L42.0626 37.3702C42.0136 37.862 42.1352 38.2478 42.4276 38.5276C42.725 38.8033 43.1587 38.9696 43.7286 39.0264C44.2939 39.0828 44.7397 39.0113 45.066 38.8117C45.3922 38.6122 45.5742 38.324 45.6118 37.9471C45.6517 37.5473 45.5374 37.2272 45.2689 36.9869C45.0009 36.742 44.3901 36.4443 43.4363 36.0938C42.4109 35.7176 41.6458 35.2676 41.141 34.7438C40.6413 34.2159 40.43 33.5426 40.507 32.724C40.5955 31.837 41.0039 31.1629 41.7323 30.7018C42.4653 30.2411 43.4039 30.0678 44.5484 30.182C45.6882 30.2957 46.5732 30.6602 47.2035 31.2755C47.8383 31.8912 48.1103 32.6541 48.0195 33.5641L48.0023 33.7364L45.8858 33.5253L45.901 33.3736C45.9436 32.9462 45.8399 32.59 45.5898 32.3051C45.3402 32.0156 44.9419 31.8436 44.395 31.789C43.8481 31.7345 43.4333 31.7975 43.1507 31.9782C42.8727 32.1593 42.7162 32.4246 42.6814 32.7739C42.6465 33.1232 42.758 33.4012 43.0159 33.608C43.2789 33.8106 43.8844 34.0915 44.8327 34.4507C45.8439 34.8301 46.608 35.2893 47.1252 35.8283C47.647 36.3677 47.8648 37.0927 47.7786 38.0031C47.6836 38.9545 47.2536 39.659 46.4885 40.1164C45.7234 40.5739 44.7502 40.7437 43.569 40.6259C42.4016 40.5094 41.4738 40.1546 40.7857 39.5614C40.1021 38.9687 39.8099 38.1759 39.9089 37.1832ZM48.9389 32.4443L49.0992 30.838L57.186 31.6448L57.0257 33.2511L54.0406 32.9533L53.1993 41.3848L51.0829 41.1736L51.9241 32.7421L48.9389 32.4443ZM57.4047 41.8044L58.4062 31.7666L65.1624 32.4406L65.0022 34.047L60.3418 33.582L60.0948 36.057L64.1279 36.4594L63.9697 38.045L59.9366 37.6426L59.6601 40.414L64.3964 40.8866L64.2368 42.486L57.4047 41.8044ZM65.7466 42.6366L66.7481 32.5988L70.402 32.9634C71.5739 33.0803 72.4585 33.4494 73.0557 34.0707C73.6579 34.6878 73.909 35.4973 73.809 36.4992C73.7082 37.5104 73.3004 38.2704 72.5859 38.7793C71.8718 39.2837 70.931 39.4776 69.7636 39.3611L68.2194 39.207L67.8562 42.8471L65.7466 42.6366ZM68.3748 37.649L69.8502 37.7962C70.466 37.8576 70.913 37.7514 71.191 37.4774C71.4735 37.2038 71.6424 36.8145 71.6974 36.3094C71.7474 35.8085 71.6602 35.4029 71.4358 35.0927C71.2115 34.7825 70.7914 34.5967 70.1755 34.5353L68.7002 34.3881L68.3748 37.649ZM71.2343 43.1842L69.3381 38.323L71.5752 38.4417L73.6059 43.4208L71.2343 43.1842ZM74.8616 38.7905L74.9235 38.1701C75.084 36.5614 75.6194 35.3825 76.5297 34.6331C77.4445 33.8842 78.5661 33.576 79.8944 33.7086C81.1583 33.8347 82.1272 34.2655 82.8012 35.0012C83.4756 35.7323 83.7612 36.6149 83.658 37.649L83.6408 37.8213L81.5105 37.6088L81.5305 37.4089C81.5905 36.8068 81.4712 36.3284 81.1723 35.9736C80.874 35.6143 80.387 35.4009 79.7114 35.3335C79.0266 35.2652 78.4514 35.4468 77.9859 35.8785C77.5209 36.3056 77.2341 37.0637 77.1254 38.153L77.0167 39.2423C76.9158 40.2534 77.0442 41.0368 77.4019 41.5923C77.7601 42.1433 78.3 42.4548 79.0215 42.5268C79.665 42.591 80.1625 42.4666 80.514 42.1535C80.8701 41.8409 81.0929 41.3989 81.1824 40.8276L81.2072 40.6491L83.3375 40.8616L83.3196 41.0409C83.1718 42.0566 82.7064 42.8596 81.9234 43.4499C81.1404 44.0402 80.1169 44.2723 78.853 44.1462C77.5155 44.0128 76.4749 43.4865 75.7311 42.5675C74.9923 41.6444 74.7025 40.3854 74.8616 38.7905ZM83.1749 44.3755L87.9867 34.6691L90.2135 34.8913L93.0817 45.3639L90.8066 45.1369L88.936 37.7857C88.8965 37.6239 88.8654 37.4699 88.8428 37.3238C88.8249 37.1781 88.8092 37.0326 88.7959 36.8874L88.7407 36.8819C88.6989 37.0216 88.6523 37.1632 88.6009 37.3066C88.5545 37.4459 88.4961 37.5886 88.4259 37.7348L85.1397 44.5715L83.1749 44.3755ZM85.5535 42.3778L86.1991 40.8617L90.632 41.3039L90.9723 42.9184L85.5535 42.3778ZM93.971 45.4527L94.9725 35.4148L98.6264 35.7794C99.7984 35.8963 100.683 36.2654 101.28 36.8867C101.882 37.5038 102.133 38.3133 102.033 39.3152C101.933 40.3264 101.525 41.0864 100.81 41.5953C100.096 42.0997 99.1555 42.2936 97.9881 42.1771L96.4438 42.023L96.0806 45.6631L93.971 45.4527ZM96.5992 40.465L98.0746 40.6122C98.6905 40.6736 99.1374 40.5674 99.4154 40.2934C99.698 40.0199 99.8668 39.6305 99.9218 39.1254C99.9718 38.6245 99.8846 38.2189 99.6603 37.9087C99.4359 37.5985 99.0158 37.4127 98.3999 37.3513L96.9246 37.2041L96.5992 40.465ZM99.4587 46.0002L97.5625 41.139L99.7996 41.2578L101.83 46.2368L99.4587 46.0002ZM103.002 46.3537L104.004 36.3159L107.368 36.6516C108.719 36.7864 109.809 37.3128 110.636 38.2309C111.464 39.149 111.804 40.348 111.656 41.828L111.593 42.4553C111.445 43.9399 110.875 45.0504 109.882 45.7869C108.89 46.5234 107.718 46.8242 106.367 46.6894L103.002 46.3537ZM105.262 44.9848L106.497 45.1079C107.278 45.1858 107.936 44.9892 108.47 44.518C109.009 44.0473 109.329 43.304 109.431 42.2883L109.502 41.5713C109.604 40.5556 109.436 39.766 109 39.2027C108.57 38.6352 107.964 38.3124 107.182 38.2345L105.948 38.1113L105.262 44.9848ZM111.6 48.806C111.885 48.5095 112.11 48.1907 112.274 47.8497C112.442 47.5137 112.548 47.1182 112.594 46.6632L112.742 45.1809L114.61 45.3673L114.469 46.8503C114.41 47.4385 114.221 47.9651 113.901 48.4298C113.585 48.8996 113.186 49.2915 112.704 49.6055L111.6 48.806ZM119.812 37.8931L122.115 38.1229L123.882 45.1853C123.915 45.3186 123.937 45.4415 123.949 45.5541C123.966 45.6626 123.984 45.7897 124.002 45.9353L124.064 45.9415C124.11 45.8023 124.153 45.6811 124.191 45.5782C124.234 45.4711 124.282 45.3553 124.337 45.2307L127.513 38.6614L129.533 38.863L124.791 48.5624L122.557 48.3396L119.812 37.8931ZM129.379 48.9854L130.381 38.9476L132.497 39.1587L131.496 49.1965L129.379 48.9854ZM133.338 46.5047L133.356 46.3186L135.507 46.5332L135.491 46.6918C135.442 47.1835 135.564 47.5694 135.856 47.8492C136.154 48.1249 136.587 48.2911 137.157 48.348C137.723 48.4044 138.168 48.3328 138.495 48.1333C138.821 47.9338 139.003 47.6456 139.041 47.2687C139.08 46.8688 138.966 46.5487 138.698 46.3084C138.43 46.0635 137.819 45.7658 136.865 45.4154C135.84 45.0392 135.075 44.5892 134.57 44.0654C134.07 43.5374 133.859 42.8642 133.936 42.0456C134.024 41.1586 134.433 40.4845 135.161 40.0233C135.894 39.5627 136.833 39.3894 137.977 39.5036C139.117 39.6173 140.002 39.9818 140.632 40.5971C141.267 41.2128 141.539 41.9756 141.448 42.8857L141.431 43.058L139.315 42.8468L139.33 42.6952C139.372 42.2677 139.269 41.9116 139.019 41.6267C138.769 41.3372 138.371 41.1652 137.824 41.1106C137.277 41.056 136.862 41.1191 136.579 41.2998C136.301 41.4809 136.145 41.7461 136.11 42.0954C136.075 42.4447 136.187 42.7228 136.445 42.9295C136.708 43.1322 137.313 43.4131 138.261 43.7722C139.273 44.1516 140.037 44.6108 140.554 45.1498C141.076 45.6893 141.294 46.4142 141.207 47.3247C141.112 48.2761 140.682 48.9805 139.917 49.438C139.152 49.8955 138.179 50.0653 136.998 49.9474C135.83 49.831 134.903 49.4761 134.214 48.883C133.531 48.2902 133.239 47.4975 133.338 46.5047ZM141.182 50.163L145.994 40.4566L148.22 40.6788L151.089 51.1514L148.814 50.9244L146.943 43.5731C146.903 43.4114 146.872 43.2574 146.85 43.1112C146.832 42.9656 146.816 42.8201 146.803 42.6749L146.748 42.6694C146.706 42.8091 146.659 42.9507 146.608 43.0941C146.561 43.2333 146.503 43.3761 146.433 43.5222L143.147 50.359L141.182 50.163ZM143.56 48.1652L144.206 46.6491L148.639 47.0914L148.979 48.7059L143.56 48.1652ZM151.476 52.7845C151.761 52.488 151.985 52.1692 152.149 51.8281C152.317 51.4921 152.424 51.0966 152.469 50.6416L152.617 49.1594L154.486 49.3458L154.345 50.8287C154.286 51.417 154.096 51.9435 153.776 52.4082C153.46 52.878 153.061 53.2699 152.58 53.5839L151.476 52.7845ZM159.948 52.0353L160.949 41.9975L163.651 42.2671L165.402 49.0076C165.442 49.1694 165.475 49.3212 165.503 49.4633C165.531 49.6007 165.55 49.7558 165.561 49.9286L165.602 49.9327C165.651 49.7659 165.703 49.6156 165.759 49.4818C165.814 49.3481 165.876 49.2081 165.947 49.0619L169.001 42.8008L171.745 43.0746L170.744 53.1124L168.655 52.904L169.294 46.4994C169.309 46.3431 169.329 46.1733 169.352 45.9899C169.38 45.8024 169.408 45.6335 169.437 45.4832L169.382 45.4777C169.344 45.6271 169.292 45.7937 169.227 45.9775C169.168 46.1572 169.103 46.3225 169.032 46.4732L166.028 52.6419L164.298 52.4693L162.593 45.8308C162.553 45.669 162.52 45.4939 162.492 45.3055C162.465 45.1125 162.447 44.939 162.439 44.785L162.384 44.7795C162.383 44.9326 162.375 45.1035 162.361 45.2924C162.352 45.4772 162.339 45.6477 162.324 45.804L161.685 52.2086L159.948 52.0353ZM181.236 54.1593L179.12 53.9481L179.73 47.8331C179.746 47.6722 179.764 47.4953 179.783 47.3022C179.807 47.105 179.83 46.9263 179.85 46.7659L179.802 46.761C179.714 46.9054 179.625 47.0474 179.537 47.1871C179.449 47.3269 179.35 47.4795 179.241 47.645L175.17 53.554L172.881 53.3256L173.882 43.2878L175.999 43.499L175.389 49.6141C175.373 49.7749 175.352 49.9539 175.328 50.1511C175.308 50.3487 175.288 50.5255 175.268 50.6813L175.323 50.6868C175.396 50.5686 175.479 50.4307 175.574 50.2731C175.673 50.1159 175.774 49.9589 175.878 49.8022L179.949 43.8931L182.238 44.1215L181.236 54.1593ZM183.374 54.3725L184.375 44.3347L188.201 44.7165C189.369 44.8329 190.237 45.2027 190.806 45.8258C191.38 46.4494 191.615 47.2828 191.511 48.3261C191.407 49.3648 191.012 50.1377 190.325 50.6448C189.643 51.1523 188.716 51.3476 187.544 51.2307L185.835 51.0601L185.483 54.583L183.374 54.3725ZM185.992 49.4814L187.516 49.6334C188.164 49.698 188.627 49.5934 188.905 49.3194C189.183 49.0454 189.348 48.6442 189.401 48.1156C189.453 47.5917 189.37 47.1725 189.15 46.8582C188.932 46.5393 188.498 46.3475 187.85 46.2829L186.327 46.1308L185.992 49.4814ZM24.1227 57.5781L22.0062 57.3669L22.6164 51.2519C22.6324 51.091 22.6501 50.914 22.6693 50.721C22.6936 50.5238 22.7161 50.3451 22.7368 50.1846L22.6885 50.1798C22.5998 50.3242 22.5114 50.4662 22.4232 50.6059C22.335 50.7457 22.2362 50.8983 22.1268 51.0638L18.0559 56.9728L15.7671 56.7444L16.7686 46.7066L18.8851 46.9178L18.275 53.0329C18.2589 53.1937 18.2387 53.3727 18.2144 53.5699C18.1947 53.7675 18.1747 53.9443 18.1546 54.1001L18.2097 54.1056C18.2818 53.9874 18.3652 53.8495 18.4599 53.6919C18.5591 53.5347 18.6606 53.3777 18.7645 53.2209L22.8354 47.3119L25.1242 47.5403L24.1227 57.5781ZM35.9668 58.7598L32.7124 53.7631L34.357 52.6321L38.6072 59.0232L35.9668 58.7598ZM31.4622 52.2667L33.0616 52.4263L36.9476 48.7199L39.2226 48.9469L33.6652 54.1228L31.3006 53.8868L31.4622 52.2667ZM29.7069 58.1352L30.7084 48.0974L32.8249 48.3086L31.8234 58.3464L29.7069 58.1352ZM39.4562 54.3524L39.5181 53.7319C39.6781 52.1279 40.2179 50.9517 41.1374 50.2032C42.0619 49.4507 43.1837 49.1402 44.5028 49.2718C45.8219 49.4034 46.8625 49.9296 47.6247 50.8505C48.3874 51.7668 48.6887 53.0269 48.5287 54.6309L48.4668 55.2514C48.3067 56.8554 47.7622 58.0335 46.833 58.7856C45.9043 59.5331 44.7805 59.8411 43.4614 59.7095C42.1423 59.5779 41.1038 59.0541 40.3457 58.1383C39.5926 57.2184 39.2962 55.9564 39.4562 54.3524ZM41.6079 54.769C41.5042 55.8077 41.6361 56.603 42.0034 57.1549C42.3754 57.7072 42.9152 58.0187 43.623 58.0893C44.3354 58.1604 44.9308 57.9622 45.4091 57.4947C45.8875 57.0272 46.1784 56.2741 46.2821 55.2353L46.3832 54.2219C46.4873 53.1786 46.3508 52.3828 45.9738 51.8346C45.5973 51.2818 45.0528 50.9699 44.3405 50.8988C43.6327 50.8282 43.0419 51.0269 42.5682 51.4948C42.0995 51.9587 41.8131 52.7123 41.709 53.7556L41.6079 54.769ZM49.755 60.1355L50.7565 50.0977L52.8661 50.3081L52.4616 54.3619L56.5015 54.7649L56.906 50.7112L59.0156 50.9217L58.0141 60.9595L55.9045 60.749L56.3399 56.3851L52.3 55.982L51.8646 60.3459L49.755 60.1355ZM60.1513 61.1727L61.1528 51.1349L67.909 51.809L67.7487 53.4153L63.0883 52.9503L62.8414 55.4253L66.8744 55.8277L66.7162 57.4134L62.6832 57.011L62.4067 59.7824L67.1429 60.2549L66.9833 61.8544L60.1513 61.1727ZM71.1595 54.9602C71.0852 55.7047 71.1963 56.2195 71.4928 56.5043C71.7898 56.7846 72.3105 56.9619 73.0551 57.0362C73.5836 57.0889 74.0685 57.1141 74.5097 57.1117C74.956 57.1052 75.4112 57.0786 75.8754 57.0321L75.7186 58.604C75.0577 58.668 74.4908 58.6973 74.0179 58.6919C73.5449 58.6865 73.0327 58.6563 72.4812 58.6013C71.107 58.4641 70.1594 58.0981 69.6386 57.503C69.1182 56.9033 68.9141 56.0405 69.0265 54.9145L69.3223 51.95L71.4387 52.1612L71.1595 54.9602ZM77.3677 52.7527L76.3662 62.7905L74.2497 62.5793L75.2512 52.5415L77.3677 52.7527ZM78.5034 63.0037L79.5048 52.9659L81.6144 53.1764L81.21 57.2301L85.2499 57.6332L85.6544 53.5795L87.764 53.79L86.7625 63.8278L84.6529 63.6173L85.0883 59.2533L81.0483 58.8503L80.6129 63.2142L78.5034 63.0037ZM88.9834 59.2938L89.0453 58.6733C89.2053 57.0693 89.7451 55.8931 90.6646 55.1447C91.5891 54.3921 92.7109 54.0816 94.03 54.2132C95.349 54.3448 96.3897 54.8711 97.1519 55.7919C97.9146 56.7082 98.2159 57.9683 98.0559 59.5724L97.994 60.1928C97.8339 61.7968 97.2893 62.9749 96.3602 63.727C95.4315 64.4745 94.3077 64.7825 92.9886 64.6509C91.6695 64.5193 90.6309 63.9956 89.8729 63.0798C89.1198 62.1598 88.8233 60.8978 88.9834 59.2938ZM91.1351 59.7104C91.0314 60.7491 91.1633 61.5444 91.5306 62.0963C91.9026 62.6487 92.4424 62.9602 93.1502 63.0308C93.8626 63.1018 94.458 62.9036 94.9363 62.4361C95.4146 61.9686 95.7056 61.2155 95.8093 60.1768L95.9104 59.1633C96.0145 58.12 95.878 57.3243 95.501 56.7761C95.1245 56.2232 94.58 55.9113 93.8676 55.8402C93.1598 55.7696 92.5691 55.9683 92.0953 56.4363C91.6267 56.9001 91.3403 57.6537 91.2362 58.697L91.1351 59.7104ZM102.813 60.6736L102.875 60.0532C103.035 58.4445 103.571 57.2655 104.481 56.5162C105.396 55.7673 106.517 55.4591 107.846 55.5916C109.11 55.7178 110.079 56.1486 110.753 56.8843C111.427 57.6154 111.713 58.4979 111.609 59.5321L111.592 59.7044L109.462 59.4919L109.482 59.2919C109.542 58.6899 109.423 58.2114 109.124 57.8567C108.825 57.4974 108.338 57.284 107.663 57.2166C106.978 57.1483 106.403 57.3299 105.937 57.7616C105.472 58.1887 105.185 58.9468 105.077 60.0361L104.968 61.1254C104.867 62.1365 104.996 62.9199 105.353 63.4754C105.711 64.0264 106.251 64.3379 106.973 64.4099C107.616 64.4741 108.114 64.3496 108.465 64.0366C108.821 63.724 109.044 63.282 109.134 62.7107L109.159 62.5322L111.289 62.7447L111.271 62.924C111.123 63.9397 110.658 64.7427 109.875 65.333C109.092 65.9233 108.068 66.1554 106.804 66.0293C105.467 65.8959 104.426 65.3696 103.682 64.4506C102.944 63.5275 102.654 62.2685 102.813 60.6736ZM112.381 66.3838L113.382 56.346L120.152 57.0214L119.992 58.6278L115.339 58.1635L115.108 60.4799L117.003 60.669C118.106 60.7791 118.928 61.1303 119.468 61.7226C120.007 62.3149 120.229 63.0936 120.133 64.0588C120.036 65.0239 119.665 65.7481 119.018 66.2313C118.371 66.7099 117.496 66.8942 116.393 66.7841L112.381 66.3838ZM114.95 62.0586L114.656 65.0093L116.358 65.1792C116.924 65.2356 117.346 65.1408 117.626 64.8949C117.906 64.6489 118.068 64.3031 118.113 63.8572C118.158 63.4068 118.067 63.038 117.84 62.7508C117.614 62.459 117.218 62.2849 116.653 62.2285L114.95 62.0586ZM121.302 67.2738L122.303 57.236L130.452 58.0491L129.451 68.0869L127.334 67.8757L128.175 59.4442L124.26 59.0535L123.418 67.485L121.302 67.2738Z" fill="#0D0711"/>
<path d="M125.738 157.313C125.738 157.313 130.638 164.875 135.898 165.597C141.158 166.318 147.912 160.354 147.912 160.354C147.912 160.354 141.215 165.541 140.516 170.635C139.818 175.729 144.872 182.528 144.872 182.528C144.872 182.528 140.174 173.864 134.864 173.136C129.554 172.408 122.698 179.487 122.698 179.487C122.698 179.487 128.946 174.286 129.651 169.145C130.356 164.005 125.738 157.313 125.738 157.313Z" fill="#0D0711"/>
<path d="M305.363 201.296C305.363 201.296 314.127 203.39 318.433 200.283C322.738 197.176 323.513 188.199 323.513 188.199C323.513 188.199 322.243 196.574 325.252 200.744C328.261 204.914 336.61 206.348 336.61 206.348C336.61 206.348 327.232 203.317 322.886 206.454C318.539 209.59 318.46 219.445 318.46 219.445C318.46 219.445 319.395 211.369 316.358 207.162C313.322 202.954 305.363 201.296 305.363 201.296Z" fill="#0D0711"/>
<path d="M266.535 17.6488C266.535 17.6488 272.245 24.6193 277.553 24.7514C282.861 24.8835 288.91 18.2055 288.91 18.2055C288.91 18.2055 282.83 24.1048 282.702 29.2453C282.574 34.3858 288.353 40.5801 288.353 40.5801C288.353 40.5801 282.721 32.4921 277.363 32.3588C272.005 32.2255 265.978 40.0234 265.978 40.0234C265.978 40.0234 271.609 34.1596 271.739 28.9725C271.868 23.7854 266.535 17.6488 266.535 17.6488Z" fill="#0D0711"/>
<path d="M82.334 293.019C82.334 293.019 73.961 296.348 72.2264 301.366C70.4919 306.385 75.0226 314.173 75.0226 314.173C75.0226 314.173 71.2433 306.591 66.3833 304.912C61.5234 303.232 53.869 306.862 53.869 306.862C53.869 306.862 63.2834 303.946 65.0342 298.88C66.7851 293.815 61.1804 285.708 61.1804 285.708C61.1804 285.708 65.0619 292.851 69.9659 294.546C74.8699 296.241 82.334 293.019 82.334 293.019Z" fill="#0D0711"/>
<rect width="22.9159" height="39.0326" rx="11.4579" transform="matrix(-0.919741 0.392526 -0.392525 -0.919741 40.4902 110.88)" fill="#5296FF"/>
<path d="M19.3725 88.3047C18.9386 88.1303 18.4454 88.3408 18.2711 88.7747L15.43 95.8463C15.2557 96.2803 15.4661 96.7734 15.9001 96.9477C16.334 97.1221 16.8271 96.9116 17.0015 96.4777L19.5269 90.1918L25.8127 92.7172C26.2467 92.8915 26.7398 92.6811 26.9142 92.2471C27.0885 91.8132 26.878 91.3201 26.4441 91.1457L19.3725 88.3047ZM26.7925 105.059L19.8356 88.758L18.278 89.4228L25.2349 105.724L26.7925 105.059Z" fill="#0D0711"/>
<rect width="29.8513" height="50.8456" rx="14.9256" transform="matrix(0.564487 0.825442 -0.825441 0.564488 43.9473 240.958)" fill="#BEF318"/>
<path d="M20.4741 273.675C20.3617 274.274 20.7559 274.85 21.3546 274.963L31.1116 276.794C31.7103 276.907 32.2868 276.513 32.3992 275.914C32.5116 275.315 32.1174 274.739 31.5186 274.626L22.8458 272.998L24.4741 264.325C24.5865 263.726 24.1923 263.15 23.5935 263.037C22.9948 262.925 22.4183 263.319 22.3059 263.918L20.4741 273.675ZM39.9926 259.936L20.9355 272.968L22.1808 274.789L41.2379 261.757L39.9926 259.936Z" fill="#0D0711"/>
<rect width="21.2874" height="36.2587" rx="10.6437" transform="matrix(-0.760544 -0.649286 0.649285 -0.760545 167.041 376.75)" fill="#BEF318"/>
<path d="M177.101 349.855C177.067 349.422 176.688 349.099 176.255 349.133L169.197 349.69C168.764 349.724 168.441 350.103 168.475 350.536C168.509 350.969 168.888 351.293 169.321 351.258L175.594 350.763L176.089 357.037C176.124 357.47 176.502 357.793 176.935 357.759C177.369 357.725 177.692 357.346 177.658 356.913L177.101 349.855ZM166.225 362.949L176.915 350.428L175.718 349.407L165.029 361.928L166.225 362.949Z" fill="#0D0711"/>
<ellipse cx="46.1073" cy="46.1073" rx="46.1073" ry="46.1073" transform="matrix(0.866025 0.500001 -0.499999 0.866026 65.0078 297.675)" fill="#0D0711"/>
<mask id="path-25-inside-1_52_1860" fill="white">
<path d="M48.1118 343.708C43.1093 352.372 41.7536 362.669 44.3431 372.334C46.9326 381.998 53.2552 390.237 61.9198 395.24C70.5844 400.243 80.8814 401.598 90.5456 399.009C100.21 396.419 108.449 390.097 113.452 381.432L110.185 379.546C105.683 387.344 98.2669 393.034 89.5692 395.365C80.8715 397.695 71.6042 396.475 63.806 391.973C56.0078 387.471 50.3176 380.055 47.987 371.357C45.6565 362.659 46.8765 353.392 51.3788 345.594L48.1118 343.708Z"/>
</mask>
<path d="M48.1118 343.708C43.1093 352.372 41.7536 362.669 44.3431 372.334C46.9326 381.998 53.2552 390.237 61.9198 395.24C70.5844 400.243 80.8814 401.598 90.5456 399.009C100.21 396.419 108.449 390.097 113.452 381.432L110.185 379.546C105.683 387.344 98.2669 393.034 89.5692 395.365C80.8715 397.695 71.6042 396.475 63.806 391.973C56.0078 387.471 50.3176 380.055 47.987 371.357C45.6565 362.659 46.8765 353.392 51.3788 345.594L48.1118 343.708Z" stroke="#E97C18" stroke-width="4.41218" mask="url(#path-25-inside-1_52_1860)"/>
<g clip-path="url(#clip1_52_1860)" filter="url(#filter0_d_52_1860)">
<path d="M91.0069 354.124L97.1783 361.083L93.5015 367.452L89.6804 365.245L83.7975 375.435C83.6025 375.773 83.2812 376.019 82.9045 376.12C82.5277 376.221 82.1263 376.168 81.7885 375.973L69.0516 368.62C68.7138 368.425 68.4673 368.103 68.3663 367.727C68.2654 367.35 68.3182 366.948 68.5133 366.611L74.3962 356.421L70.5751 354.215L74.2519 347.847L83.3648 349.711C82.7797 350.725 82.6211 351.929 82.924 353.059C83.2269 354.19 83.9663 355.153 84.9797 355.739C85.9932 356.324 87.1975 356.482 88.3278 356.179C89.4581 355.876 90.4218 355.137 91.0069 354.124Z" stroke="#E97C18" stroke-width="2.94145" stroke-linecap="round" stroke-linejoin="round"/>
<path d="M80.1289 359.73L83.3131 361.569L77.7258 366.834" stroke="#E97C18" stroke-width="2.94145" stroke-linecap="round" stroke-linejoin="round"/>
</g>
<path d="M57.8241 339.916C57.3855 340.372 56.9485 340.635 56.513 340.706C56.0826 340.771 55.6573 340.699 55.2372 340.488C54.8222 340.273 54.4161 339.973 54.0187 339.591L51.7458 337.403C51.3114 336.985 50.9784 336.573 50.747 336.166C50.5207 335.755 50.44 335.34 50.5048 334.923C50.5695 334.495 50.8211 334.053 51.2596 333.598C51.6472 333.195 52.0274 332.949 52.4001 332.858C52.7779 332.763 53.153 332.797 53.5254 332.962C53.9029 333.121 54.2851 333.387 54.6718 333.759L55.1804 334.248L54.362 335.099L53.909 334.663C53.6706 334.433 53.4485 334.245 53.2429 334.098C53.0371 333.941 52.8328 333.867 52.6302 333.876C52.4275 333.885 52.2063 334.014 51.9667 334.263C51.7219 334.517 51.599 334.756 51.5981 334.98C51.5919 335.199 51.6716 335.423 51.8372 335.654C52.0026 335.875 52.2178 336.112 52.4827 336.367L55.0338 338.823C55.357 339.134 55.6394 339.355 55.8812 339.485C56.1176 339.611 56.3342 339.651 56.531 339.605C56.7277 339.56 56.9255 339.434 57.1244 339.227C57.359 338.984 57.4743 338.758 57.4703 338.55C57.4611 338.337 57.3738 338.125 57.2086 337.915C57.0433 337.705 56.8336 337.478 56.5792 337.233L56.1024 336.774L56.9209 335.924L57.3977 336.383C57.7898 336.76 58.0909 337.142 58.3011 337.528C58.506 337.909 58.5811 338.297 58.5262 338.694C58.4661 339.085 58.232 339.492 57.8241 339.916Z" fill="white"/>
<path d="M59.8382 337.733L54.5586 330.525L58.5274 327.618L63.807 334.826L62.8014 335.562L58.0498 329.075L56.0921 330.509L60.8437 336.996L59.8382 337.733Z" fill="white"/>
<path d="M66.9009 333.311C66.3584 333.574 65.8737 333.679 65.4468 333.624C65.0199 333.57 64.6423 333.381 64.314 333.058C63.9825 332.728 63.6883 332.299 63.4315 331.77L61.9535 328.723C61.6967 328.194 61.5463 327.707 61.5023 327.262C61.4617 326.808 61.552 326.404 61.7733 326.052C61.998 325.689 62.3816 325.377 62.9242 325.113C63.4667 324.85 63.9465 324.744 64.3636 324.795C64.7806 324.846 65.1501 325.027 65.472 325.336C65.8005 325.643 66.0932 326.061 66.3499 326.59L67.8328 329.647C68.0864 330.169 68.2351 330.661 68.2789 331.122C68.3293 331.58 68.2487 331.995 68.037 332.367C67.8222 332.733 67.4435 333.048 66.9009 333.311ZM66.4724 332.428C66.7702 332.283 66.9662 332.115 67.0606 331.922C67.1518 331.722 67.1709 331.5 67.1179 331.256C67.0617 331.006 66.9614 330.732 66.817 330.434L65.1078 326.911C64.9634 326.613 64.8134 326.371 64.6577 326.185C64.4989 325.992 64.3161 325.877 64.1094 325.838C63.8994 325.793 63.6456 325.842 63.3478 325.987C63.0501 326.131 62.8507 326.302 62.7497 326.498C62.6521 326.684 62.6298 326.899 62.6828 327.143C62.7326 327.381 62.8297 327.648 62.9741 327.946L64.6833 331.469C64.8277 331.767 64.9809 332.015 65.143 332.214C65.3019 332.407 65.4879 332.529 65.701 332.581C65.9176 332.623 66.1747 332.572 66.4724 332.428Z" fill="white"/>
<path d="M69.8847 331.854L67.3357 323.291L69.4606 322.658C69.9751 322.505 70.4122 322.478 70.7719 322.578C71.1366 322.669 71.4419 322.87 71.6877 323.18C71.9336 323.491 72.131 323.896 72.28 324.397C72.4142 324.848 72.4496 325.263 72.3861 325.643C72.3297 326.02 72.1737 326.346 71.9181 326.622C71.6604 326.891 71.299 327.094 70.8339 327.232L69.8929 327.513L71.0794 331.498L69.8847 331.854ZM69.638 326.656L70.1878 326.493C70.5331 326.39 70.7929 326.27 70.9672 326.134C71.1415 325.998 71.2426 325.822 71.2705 325.606C71.2963 325.384 71.2568 325.096 71.1519 324.744C71.0302 324.335 70.9051 324.031 70.7767 323.831C70.6552 323.63 70.4868 323.515 70.2713 323.487C70.0558 323.459 69.7472 323.505 69.3455 323.624L68.7852 323.791L69.638 326.656Z" fill="white"/>
<path d="M75.9743 330.31L74.8581 322.38L73.3616 322.591L73.2325 321.673L77.4159 321.084L77.5451 322.002L76.0923 322.206L77.2086 330.136L75.9743 330.31Z" fill="white"/>
<path d="M79.3404 329.858L79.4551 320.924L80.5581 320.938L80.4786 327.126L83.1721 320.972L84.0655 320.983L83.9507 329.917L82.8588 329.903L82.9396 323.616L80.2669 329.87L79.3404 329.858Z" fill="white"/>
<path d="M84.9695 330.012L86.5811 321.223L88.5991 321.594C88.9969 321.667 89.3325 321.773 89.6059 321.913C89.8866 322.054 90.108 322.233 90.2701 322.449C90.4322 322.666 90.5344 322.924 90.5767 323.223C90.6204 323.516 90.6077 323.85 90.5387 324.226C90.4724 324.587 90.3677 324.893 90.2246 325.144C90.09 325.388 89.9148 325.569 89.6989 325.687C89.4902 325.805 89.2372 325.86 88.94 325.85C89.2798 325.995 89.5403 326.185 89.7215 326.42C89.904 326.648 90.018 326.923 90.0636 327.245C90.1177 327.561 90.1063 327.929 90.0293 328.349C89.9603 328.725 89.8539 329.061 89.7101 329.356C89.5663 329.651 89.3804 329.89 89.1526 330.072C88.932 330.256 88.6657 330.383 88.3539 330.453C88.0506 330.517 87.7036 330.513 87.313 330.441L84.9695 330.012ZM86.3567 329.358L87.1812 329.509C87.731 329.61 88.1194 329.55 88.3467 329.33C88.5825 329.104 88.7528 328.705 88.8576 328.134C88.9252 327.765 88.931 327.449 88.8748 327.184C88.8272 326.914 88.7062 326.697 88.5117 326.534C88.3258 326.366 88.0521 326.248 87.6904 326.182L86.9635 326.049L86.3567 329.358ZM87.1346 325.115L87.8615 325.249C88.2087 325.312 88.4886 325.315 88.7011 325.257C88.915 325.191 89.0816 325.058 89.2009 324.855C89.3203 324.653 89.4118 324.378 89.4755 324.031C89.5497 323.626 89.542 323.322 89.4522 323.118C89.3624 322.915 89.1913 322.768 88.9388 322.676C88.6877 322.578 88.3524 322.49 87.9329 322.413L87.64 322.36L87.1346 325.115Z" fill="white"/>
<path d="M90.4856 331.099L93.6352 322.738L94.8016 323.177L93.4407 326.79L95.5877 327.599L96.9487 323.986L98.1151 324.425L94.9655 332.787L93.799 332.347L95.2727 328.435L93.1257 327.626L91.652 331.538L90.4856 331.099Z" fill="white"/>
<path d="M95.6993 333.109L101.888 326.391L102.922 327.004L100.007 335.663L98.9918 335.061L99.7882 332.917L98.2226 331.989L96.7051 333.705L95.6993 333.109ZM98.8206 331.305L100.102 332.064L101.509 328.219L98.8206 331.305Z" fill="white"/>
<path d="M100.261 335.803L104.283 333.943C104.093 333.552 104.036 333.124 104.111 332.658C104.197 332.191 104.446 331.714 104.858 331.225C105.167 330.859 105.507 330.593 105.879 330.426C106.255 330.253 106.67 330.218 107.122 330.32C107.574 330.423 108.065 330.697 108.593 331.143L109.976 332.309L104.215 339.138L103.262 338.335L105.652 335.502L105.112 335.047C105.101 335.037 105.065 335.006 105.003 334.954C104.946 334.896 104.911 334.863 104.9 334.853L101.323 336.699L100.261 335.803ZM105.874 334.52L106.228 334.819L108.447 332.188L108.068 331.868C107.64 331.508 107.239 331.328 106.863 331.328C106.493 331.334 106.128 331.55 105.768 331.977C105.36 332.461 105.155 332.903 105.152 333.305C105.15 333.707 105.391 334.112 105.874 334.52Z" fill="white"/>
<path d="M108.02 343.888C107.675 343.393 107.496 342.931 107.483 342.501C107.469 342.071 107.596 341.668 107.864 341.293C108.137 340.914 108.515 340.556 108.997 340.219L111.774 338.281C112.256 337.944 112.714 337.719 113.146 337.606C113.588 337.494 114.001 337.52 114.384 337.683C114.777 337.848 115.146 338.178 115.491 338.673C115.836 339.167 116.016 339.624 116.032 340.044C116.047 340.464 115.927 340.857 115.671 341.224C115.42 341.596 115.053 341.951 114.571 342.288L111.785 344.232C111.309 344.565 110.847 344.789 110.398 344.905C109.954 345.026 109.531 345.012 109.13 344.862C108.735 344.707 108.365 344.382 108.02 343.888ZM108.825 343.326C109.015 343.597 109.212 343.764 109.417 343.827C109.629 343.886 109.851 343.87 110.083 343.779C110.322 343.684 110.577 343.542 110.848 343.353L114.059 341.112C114.331 340.922 114.546 340.736 114.705 340.553C114.871 340.366 114.956 340.167 114.962 339.957C114.974 339.742 114.885 339.5 114.695 339.228C114.506 338.957 114.306 338.787 114.097 338.718C113.897 338.651 113.681 338.662 113.449 338.753C113.222 338.84 112.973 338.977 112.702 339.167L109.491 341.408C109.22 341.598 108.998 341.788 108.827 341.979C108.662 342.167 108.57 342.369 108.552 342.588C108.545 342.809 108.636 343.055 108.825 343.326Z" fill="white"/>
<path d="M108.247 346.717L110.538 345.679L110.706 346.05C110.851 346.122 111.015 346.181 111.198 346.227C111.384 346.28 111.605 346.305 111.862 346.302C112.128 346.302 112.45 346.265 112.828 346.19C113.213 346.113 113.68 345.986 114.23 345.809C114.783 345.639 115.439 345.403 116.197 345.099L118.667 344.136L120.211 347.542L112.888 350.862L113.243 351.646L110.953 352.685L110.556 351.811L111.992 351.051L110.161 347.012L108.643 347.591L108.247 346.717ZM111.184 347.105L112.378 349.737L118.857 346.8L118.261 345.483L116.386 346.237C115.65 346.538 115.021 346.771 114.498 346.935C113.985 347.103 113.55 347.22 113.192 347.285C112.843 347.354 112.546 347.384 112.3 347.375C112.063 347.369 111.858 347.337 111.686 347.277C111.517 347.225 111.35 347.167 111.184 347.105Z" fill="white"/>
<path d="M112.495 352.579L121.129 350.282L122.02 353.629L121.124 353.867L120.554 351.725L117.697 352.485L118.16 354.222L117.307 354.449L116.845 352.712L113.679 353.554L114.254 355.718L113.391 355.948L112.495 352.579Z" fill="white"/>
<path d="M113.575 356.093L118.308 357.753L122.493 355.508L122.6 356.705L118.453 358.758L118.459 358.824L122.755 358.441L122.849 359.496L118.553 359.879L118.56 359.956L123.004 361.232L123.111 362.44L118.594 360.961L114.231 363.443L114.122 362.223L118.407 359.981L118.399 359.893L113.949 360.29L113.855 359.235L118.305 358.838L118.298 358.761L113.683 357.301L113.575 356.093Z" fill="white"/>
<path d="M112.589 362.813L115.088 363.093L115.043 363.499C115.131 363.634 115.242 363.769 115.375 363.902C115.507 364.043 115.684 364.177 115.907 364.306C116.136 364.442 116.432 364.575 116.794 364.705C117.165 364.835 117.631 364.965 118.194 365.094C118.756 365.231 119.44 365.364 120.247 365.491L122.862 365.928L122.446 369.644L114.455 368.749L114.359 369.604L111.86 369.325L111.966 368.371L113.589 368.453L114.082 364.046L112.482 363.767L112.589 362.813ZM114.914 364.65L114.592 367.522L121.663 368.313L121.823 366.877L119.827 366.565C119.041 366.447 118.381 366.325 117.848 366.199C117.321 366.081 116.887 365.958 116.546 365.831C116.212 365.712 115.941 365.586 115.734 365.452C115.534 365.326 115.374 365.193 115.257 365.054C115.138 364.923 115.024 364.788 114.914 364.65Z" fill="white"/>
<path d="M113.409 369.569L121.416 373.964L121.069 375.116L111.963 374.364L112.304 373.234L114.576 373.493L115.102 371.75L113.071 370.689L113.409 369.569ZM115.909 372.166L115.48 373.592L119.551 374.036L115.909 372.166Z" fill="white"/>
<path d="M155.366 80.6795C155.113 78.9798 156.287 77.3971 157.987 77.1453L336.118 50.7603C337.817 50.5087 339.398 51.681 339.65 53.3791L341.527 65.9916C341.779 67.6913 340.606 69.2739 338.906 69.5257L160.774 95.9108C159.076 96.1623 157.495 94.9901 157.243 93.2919L155.366 80.6795Z" fill="#C11C3A"/>
<path d="M178.015 87.4153L179.606 79.3279L181.703 79.0158L185.632 86.282L183.608 86.5831L181.057 81.5677C180.996 81.4478 180.943 81.3338 180.898 81.2259C180.853 81.1144 180.81 81.0026 180.768 80.8906L180.726 80.8969C180.722 81.0157 180.715 81.135 180.704 81.2548C180.693 81.3746 180.676 81.499 180.652 81.6279L179.681 87.1674L178.015 87.4153ZM179.37 85.5801L179.601 84.2077L182.986 83.7041L183.612 84.949L179.37 85.5801ZM191 85.4834L187.97 82.3447L189.073 80.95L193.339 85.1354L191 85.4834ZM186.644 81.4136L187.958 81.218L189.982 77.811L191.917 77.5232L188.883 82.4507L186.843 82.7541L186.644 81.4136ZM186.331 86.178L185.193 78.5235L187.064 78.2451L188.203 85.8995L186.331 86.178ZM192.998 85.1862L194.589 77.0988L196.686 76.7867L200.615 84.0529L198.591 84.354L196.04 79.3386C195.979 79.2187 195.926 79.1048 195.881 78.9968C195.836 78.8853 195.792 78.7735 195.751 78.6615L195.709 78.6678C195.705 78.7866 195.698 78.9059 195.687 79.0257C195.676 79.1455 195.659 79.2699 195.635 79.3988L194.664 84.9383L192.998 85.1862ZM194.353 83.3511L194.584 81.9787L197.969 81.475L198.595 82.7199L194.353 83.3511ZM207.277 84.6202L207.05 83.0956L202.303 83.8018L202.53 85.3264L200.774 85.5877L200.349 82.733L208.608 81.5043L209.033 84.3589L207.277 84.6202ZM200.88 76.1896L206.695 75.3246L207.833 82.979L205.962 83.2575L205.021 76.9331L202.529 77.3038L202.819 80.0871C202.897 80.8493 202.911 81.4456 202.86 81.8758C202.813 82.3056 202.707 82.692 202.543 83.0353L200.882 83.2824C201.092 82.8643 201.229 82.448 201.293 82.0338C201.36 81.6154 201.353 81.0039 201.272 80.199L200.88 76.1896ZM209.747 82.6943L208.608 75.0399L214.118 74.2202L214.316 75.5503L210.667 76.0931L210.924 77.8174L214.083 77.3474L214.279 78.6669L211.12 79.137L211.41 81.0874L215.116 80.536L215.314 81.8661L209.747 82.6943ZM216.487 81.6917L215.348 74.0372L217.724 73.6837L219.971 78.0619C220.032 78.1818 220.087 78.2938 220.134 78.3977C220.185 78.5012 220.234 78.6212 220.279 78.7577L220.311 78.753C220.318 78.6086 220.329 78.4798 220.345 78.3664C220.359 78.2496 220.379 78.1267 220.403 77.9978L221.241 73.1604L223.696 72.7952L224.835 80.4496L222.969 80.7273L222.27 76.0274C222.251 75.9012 222.234 75.7622 222.218 75.6105C222.203 75.4587 222.192 75.3225 222.184 75.2018L222.137 75.2088C222.13 75.3316 222.12 75.471 222.108 75.6269C222.095 75.7828 222.079 75.9267 222.059 76.0586L221.187 80.9924L219.694 81.2145L217.41 76.7395C217.349 76.6196 217.292 76.4884 217.239 76.3459C217.185 76.1999 217.14 76.0669 217.104 75.9468L217.052 75.9546C217.08 76.0757 217.11 76.2111 217.139 76.3608C217.171 76.5064 217.197 76.6423 217.216 76.7685L217.917 81.4789L216.487 81.6917ZM233.273 79.1943L231.401 79.4727L230.735 74.9936C230.718 74.878 230.7 74.7463 230.681 74.5986C230.663 74.4508 230.649 74.3169 230.638 74.1967L230.59 74.2037C230.555 74.3237 230.515 74.4442 230.472 74.5652C230.429 74.6862 230.384 74.8148 230.336 74.9508L228.499 79.9045L226.486 80.204L225.347 72.5496L227.219 72.2711L227.876 76.6872C227.893 76.8063 227.912 76.9541 227.931 77.1303C227.953 77.3061 227.971 77.4521 227.985 77.5682L228.032 77.5612C228.064 77.4598 228.103 77.3358 228.149 77.1892C228.195 77.0426 228.241 76.9033 228.286 76.7712L230.121 71.8394L232.134 71.5398L233.273 79.1943ZM240.738 78.0837L238.866 78.3621L238.472 75.7125L236.785 75.9636L236.422 75.8349C235.675 75.8492 235.085 75.6737 234.651 75.3084C234.22 74.9426 233.958 74.4443 233.864 73.8134C233.75 73.0494 233.927 72.4069 234.394 71.8861C234.861 71.3617 235.581 71.027 236.555 70.8821L239.599 70.4292L240.738 78.0837ZM238.278 74.4087L237.923 72.022L236.856 72.1807C236.372 72.2527 236.052 72.4114 235.895 72.6568C235.738 72.9023 235.685 73.1968 235.736 73.5402C235.788 73.8907 235.926 74.1675 236.15 74.3707C236.374 74.5738 236.727 74.6394 237.211 74.5675L238.278 74.4087ZM236.464 78.7195L234.445 79.0199L235.82 75.2205L237.786 74.928L236.464 78.7195ZM244.187 77.5706L246.197 72.876L246.617 72.8135L248.026 69.1755L249.809 68.9103L247.947 73.4432L247.526 73.5057L246.011 77.2992L244.187 77.5706ZM243.158 69.8997L245.341 69.5804L247.787 72.6233L247.808 72.6201L251.147 76.535L248.939 76.8635L246.382 73.7243L246.366 73.7267L243.158 69.8997ZM251.005 76.5562L252.596 68.4687L254.694 68.1566L258.623 75.4228L256.599 75.724L254.047 70.7086C253.986 70.5886 253.934 70.4747 253.889 70.3667C253.844 70.2552 253.8 70.1435 253.758 70.0315L253.716 70.0377C253.713 70.1565 253.705 70.2758 253.694 70.3957C253.684 70.5155 253.666 70.6399 253.642 70.7688L252.672 76.3082L251.005 76.5562ZM252.36 74.721L252.592 73.3486L255.977 72.8449L256.603 74.0898L252.36 74.721ZM258.492 71.7615L258.425 71.3093C258.244 70.0932 258.445 69.1121 259.029 68.366C259.617 67.6195 260.445 67.1667 261.514 67.0077C262.558 66.8523 263.411 66.9869 264.073 67.4115C264.734 67.8326 265.142 68.4489 265.299 69.2603L265.316 69.3759L263.413 69.6591L263.387 69.5232C263.312 69.1117 263.135 68.7995 262.856 68.5867C262.58 68.3698 262.197 68.2978 261.706 68.3708C261.194 68.447 260.808 68.6942 260.548 69.1127C260.292 69.5306 260.22 70.1216 260.334 70.8856L260.442 71.6111C260.553 72.3611 260.792 72.9042 261.157 73.2403C261.522 73.573 261.97 73.6997 262.503 73.6204C262.99 73.5479 263.333 73.3625 263.533 73.0642C263.731 72.7624 263.807 72.4127 263.758 72.0151L263.745 71.8934L265.649 71.6102L265.667 71.7312C265.758 72.5414 265.546 73.2465 265.03 73.8463C264.517 74.4456 263.741 74.8227 262.7 74.9775C261.624 75.1376 260.698 74.944 259.921 74.3968C259.148 73.8491 258.672 72.9706 258.492 71.7615ZM271.876 73.4511L268.846 70.3124L269.95 68.9176L274.216 73.103L271.876 73.4511ZM267.52 69.3812L268.834 69.1857L270.858 65.7787L272.793 65.4908L269.759 70.4183L267.719 70.7218L267.52 69.3812ZM267.208 74.1456L266.069 66.4912L267.941 66.2127L269.079 73.8672L267.208 74.1456ZM281.618 72.0018L279.746 72.2802L279.08 67.8011C279.063 67.6855 279.045 67.5538 279.026 67.4061C279.008 67.2583 278.994 67.1244 278.983 67.0042L278.935 67.0112C278.9 67.1312 278.86 67.2517 278.817 67.3727C278.774 67.4937 278.729 67.6223 278.681 67.7583L276.844 72.712L274.831 73.0115L273.692 65.3571L275.564 65.0786L276.221 69.4947C276.238 69.6138 276.257 69.7616 276.276 69.9378C276.298 70.1136 276.316 70.2596 276.33 70.3757L276.377 70.3687C276.409 70.2673 276.448 70.1433 276.494 69.9967C276.54 69.8501 276.586 69.7108 276.631 69.5787L278.466 64.6469L280.479 64.3473L281.618 72.0018Z" fill="white"/>
<path d="M171.103 85.4952C171.359 85.1502 171.287 84.6633 170.942 84.4076L165.319 80.2416C164.974 79.9859 164.487 80.0584 164.232 80.4034C163.976 80.7484 164.048 81.2353 164.393 81.491L169.391 85.1941L165.688 90.1918C165.432 90.5368 165.505 91.0237 165.85 91.2794C166.195 91.535 166.682 91.4626 166.937 91.1176L171.103 85.4952ZM160.134 87.3574L170.593 85.8014L170.364 84.2633L159.905 85.8193L160.134 87.3574Z" fill="white"/>
<path d="M304.094 65.9842C304.349 65.6392 304.277 65.1523 303.932 64.8966L298.309 60.7306C297.964 60.4749 297.477 60.5474 297.222 60.8924C296.966 61.2374 297.039 61.7243 297.384 61.98L302.381 65.6832L298.678 70.6808C298.422 71.0258 298.495 71.5127 298.84 71.7684C299.185 72.024 299.672 71.9516 299.927 71.6066L304.094 65.9842ZM293.124 67.8464L303.583 66.2904L303.354 64.7523L292.895 66.3083L293.124 67.8464Z" fill="white"/>
<path d="M318.861 63.7875C319.117 63.4425 319.044 62.9555 318.699 62.6999L313.077 58.5338C312.732 58.2781 312.245 58.3506 311.989 58.6956C311.734 59.0406 311.806 59.5276 312.151 59.7832L317.149 63.4864L313.446 68.484C313.19 68.829 313.262 69.316 313.607 69.5716C313.952 69.8273 314.439 69.7548 314.695 69.4098L318.861 63.7875ZM307.892 65.6497L318.351 64.0936L318.122 62.5555L307.663 64.1116L307.892 65.6497Z" fill="white"/>
<path d="M333.625 61.5908C333.88 61.2458 333.808 60.7589 333.463 60.5032L327.841 56.3371C327.496 56.0815 327.009 56.1539 326.753 56.4989C326.497 56.844 326.57 57.3309 326.915 57.5865L331.912 61.2897L328.209 66.2874C327.954 66.6324 328.026 67.1193 328.371 67.375C328.716 67.6306 329.203 67.5582 329.459 67.2132L333.625 61.5908ZM322.655 63.453L333.115 61.897L332.886 60.3589L322.427 61.9149L322.655 63.453Z" fill="white"/>
<rect x="159.934" y="396.242" width="25.9629" height="44.2225" rx="12.9814" fill="#BEF318"/>
<path d="M171.898 429.157C172.272 429.531 172.88 429.531 173.255 429.157L179.36 423.051C179.735 422.677 179.735 422.069 179.36 421.695C178.985 421.32 178.378 421.32 178.003 421.695L172.576 427.122L167.149 421.695C166.775 421.32 166.167 421.32 165.792 421.695C165.418 422.069 165.418 422.677 165.792 423.051L171.898 429.157ZM171.617 408.398L171.617 428.478L173.536 428.478L173.536 408.398L171.617 408.398Z" fill="#0D0711"/>
<defs>
<filter id="filter0_d_52_1860" x="53.1953" y="337.998" width="56.2168" height="56.2172" filterUnits="userSpaceOnUse" color-interpolation-filters="sRGB">
<feFlood flood-opacity="0" result="BackgroundImageFix"/>
<feColorMatrix in="SourceAlpha" type="matrix" values="0 0 0 0 0 0 0 0 0 0 0 0 0 0 0 0 0 0 127 0" result="hardAlpha"/>
<feOffset dy="4"/>
<feGaussianBlur stdDeviation="2"/>
<feComposite in2="hardAlpha" operator="out"/>
<feColorMatrix type="matrix" values="0 0 0 0 0 0 0 0 0 0 0 0 0 0 0 0 0 0 0.25 0"/>
<feBlend mode="normal" in2="BackgroundImageFix" result="effect1_dropShadow_52_1860"/>
<feBlend mode="normal" in="SourceGraphic" in2="effect1_dropShadow_52_1860" result="shape"/>
</filter>
<clipPath id="clip0_52_1860">
<rect width="26.9143" height="26.9143" fill="white" transform="translate(210.051 323.134) rotate(-19.2325)"/>
</clipPath>
<clipPath id="clip1_52_1860">
<rect width="35.2974" height="35.2975" fill="white" transform="matrix(0.866025 0.500001 -0.499999 0.866026 74.8438 337.998)"/>
</clipPath>
</defs>
</svg>
